<svg width="50" height="50" viewBox="0 0 50 50" fill="none" xmlns="http://www.w3.org/2000/svg">
<path d="M46.4286 0H3.57143C2.62423 0 1.71582 0.526784 1.04605 1.46447C0.376274 2.40215 0 3.67392 0 5V12.5C0 13.8261 0.376274 15.0979 1.04605 16.0355C1.71582 16.9732 2.62423 17.5 3.57143 17.5V45C3.57143 46.3261 3.9477 47.5979 4.61748 48.5355C5.28725 49.4732 6.19566 50 7.14286 50H42.8571C43.8043 50 44.7127 49.4732 45.3825 48.5355C46.0523 47.5979 46.4286 46.3261 46.4286 45V17.5C47.3758 17.5 48.2842 16.9732 48.954 16.0355C49.6237 15.0979 50 13.8261 50 12.5V5C50 3.67392 49.6237 2.40215 48.954 1.46447C48.2842 0.526784 47.3758 0 46.4286 0ZM42.8571 45H7.14286V17.5H42.8571V45ZM46.4286 12.5H3.57143V5H46.4286V12.5ZM17.8571 27.5C17.8571 26.837 18.0453 26.2011 18.3802 25.7322C18.7151 25.2634 19.1693 25 19.6429 25H30.3571C30.8307 25 31.2849 25.2634 31.6198 25.7322C31.9547 26.2011 32.1429 26.837 32.1429 27.5C32.1429 28.163 31.9547 28.7989 31.6198 29.2678C31.2849 29.7366 30.8307 30 30.3571 30H19.6429C19.1693 30 18.7151 29.7366 18.3802 29.2678C18.0453 28.7989 17.8571 28.163 17.8571 27.5Z" fill="#B31313"/>
</svg>
