<svg xmlns="http://www.w3.org/2000/svg" width="430" height="430" style="width:100%;height:100%;transform:translate3d(0,0,0);content-visibility:visible" viewBox="0 0 430 430"><defs><clipPath id="c"><path d="M0 0h430v430H0z"/></clipPath><clipPath id="g"><path d="M0 0h430v430H0z"/></clipPath><clipPath id="e"><path d="M0 0h430v430H0z"/></clipPath><clipPath id="d"><path d="M0 0h430v430H0z"/></clipPath><filter id="a" width="100%" height="100%" x="0%" y="0%" filterUnits="objectBoundingBox"><feComponentTransfer in="SourceGraphic"><feFuncA tableValues="1.0 0.0" type="table"/></feComponentTransfer></filter><mask id="f" mask-type="alpha" maskUnits="userSpaceOnUse"><g filter="url(#a)"><path fill="#fff" d="M0 0h430v430H0z" opacity="0"/><use xmlns:ns1="http://www.w3.org/1999/xlink" ns1:href="#b"/></g></mask><g id="b" style="display:none"><path/><path/></g></defs><g clip-path="url(#c)"><g clip-path="url(#d)" style="display:none"><g style="display:none"><path class="secondary"/><path class="secondary" style="mix-blend-mode:multiply"/></g><path fill="none" class="primary" style="display:none"/><path class="secondary" style="display:none"/><path fill="none" class="primary" style="display:none"/></g><g clip-path="url(#e)" style="display:block"><g fill="#FFC638" style="display:block"><path d="M63 87a3 3 0 0 0-3 3v247.016h310V123a3 3 0 0 0-3-3H170l-24.1-31.812A3 3 0 0 0 143.509 87z" class="secondary"/><path fill-opacity=".5" d="M-152-41.5a3 3 0 0 0-3 3v247.016h310V-5.5a3 3 0 0 0-3-3H-45l-24.1-31.812a3 3 0 0 0-2.391-1.188z" class="secondary" style="mix-blend-mode:multiply" transform="translate(215 128.5)"/></g><path fill="none" stroke="#121330" stroke-linecap="round" stroke-linejoin="round" stroke-width="7" d="M-152-41.5a3 3 0 0 0-3 3v247.016h310V-5.5a3 3 0 0 0-3-3H-45l-24.1-31.812a3 3 0 0 0-2.391-1.188z" class="primary" style="display:block" transform="translate(215 128.5)"/><g mask="url(#f)" style="display:none"><path class="tertiary"/><path fill="none" class="primary"/></g><path class="secondary" style="display:none"/><path fill="none" class="primary" style="display:none"/><path fill="#FFC638" d="M155-85h-310V82a3 3 0 0 0 3 3h304a3 3 0 0 0 3-3z" class="secondary" style="display:none" transform="translate(215 255)"/><path fill="none" stroke="#121330" stroke-linecap="round" stroke-linejoin="round" stroke-width="7" d="M155-85h-310V82a3 3 0 0 0 3 3h304a3 3 0 0 0 3-3z" class="primary" style="display:none" transform="translate(215 255)"/><path fill="#FFC638" d="M155-85h-310V82a3 3 0 0 0 3 3h304a3 3 0 0 0 3-3z" class="secondary" style="display:block" transform="translate(215 255)"/><path fill="none" stroke="#121330" stroke-linecap="round" stroke-linejoin="round" stroke-width="7" d="M155-85h-310V82a3 3 0 0 0 3 3h304a3 3 0 0 0 3-3z" class="primary" style="display:block" transform="translate(215 255)"/></g><g clip-path="url(#g)" style="display:none"><g style="display:none"><path class="secondary"/><path class="secondary" style="mix-blend-mode:multiply"/></g><path fill="none" class="primary" style="display:none"/><path class="secondary" style="display:none"/><path fill="none" class="primary" style="display:none"/><path class="secondary" style="display:none"/><path fill="none" class="primary" style="display:none"/></g></g></svg>