<svg xmlns="http://www.w3.org/2000/svg" width="430" height="430" style="width:100%;height:100%;transform:translate3d(0,0,0);content-visibility:visible" viewBox="0 0 430 430"><defs><clipPath id="a"><path d="M0 0h430v430H0z"/></clipPath><clipPath id="f"><path d="M0 0h430v430H0z"/></clipPath><clipPath id="e"><path d="M0 0h430v430H0z"/></clipPath><clipPath id="d"><path d="M0 0h430v430H0z"/></clipPath><clipPath id="c"><path d="M0 0h430v430H0z"/></clipPath><clipPath id="b"><path d="M0 0h430v430H0z"/></clipPath></defs><g clip-path="url(#a)"><g clip-path="url(#b)" style="display:none"><g style="display:none"><path class="tertiary"/><path class="tertiary" style="mix-blend-mode:multiply"/></g><g style="display:none"><path class="secondary"/><path class="secondary" style="mix-blend-mode:multiply"/></g><g style="display:none"><path class="quaternary"/><path class="quaternary" style="mix-blend-mode:multiply"/></g><path fill="none" class="primary" style="display:none"/><path fill="none" class="primary" style="display:none"/><path fill="none" class="primary" style="display:none"/><path fill="none" class="primary" style="display:none"/></g><g clip-path="url(#c)" style="display:none"><g style="display:none"><path class="tertiary"/><path class="tertiary" style="mix-blend-mode:multiply"/></g><path fill="none" class="primary" style="display:none"/><g style="display:none"><path class="secondary"/><path class="secondary" style="mix-blend-mode:multiply"/></g><path fill="none" class="primary" style="display:none"/><g style="display:none"><path class="quaternary"/><path class="quaternary" style="mix-blend-mode:multiply"/></g><path fill="none" class="primary" style="display:none"/><path fill="none" class="primary" style="display:none"/></g><g clip-path="url(#d)" style="display:block"><g fill="#F18AA8" style="display:block"><path d="M350 169.25c0-1.656-1.344-3-3-3h-64c-1.656 0-3 1.344-3 3V372.5c0 1.656 1.344 3 3 3h64c1.656 0 3-1.344 3-3z" class="tertiary"/><path fill-opacity=".5" d="M17.5-66.25c0-1.656-1.344-3-3-3h-29c-1.656 0-3 1.344-3 3V137c0 1.656 1.344 3 3 3h29c1.656 0 3-1.344 3-3z" class="tertiary" style="mix-blend-mode:multiply" transform="translate(297.5 235.5)"/></g><path fill="none" stroke="#121330" stroke-linejoin="round" stroke-width="7" d="M-35 105v-210h70v210" class="primary" style="display:block" transform="translate(315 270)"/><g fill="#F14B00" style="display:block"><path d="M250 58c0-1.656-1.344-3-3-3h-64c-1.656 0-3 1.344-3 3v314.5c0 1.656 1.344 3 3 3h64c1.656 0 3-1.344 3-3z" class="secondary"/><path fill-opacity=".5" d="M17.5-222.5c0-1.656-1.344-3-3-3h-29c-1.656 0-3 1.344-3 3V92c0 1.656 1.344 3 3 3h29c1.656 0 3-1.344 3-3z" class="secondary" style="mix-blend-mode:multiply" transform="translate(197.5 280.5)"/></g><path fill="none" stroke="#121330" stroke-linejoin="round" stroke-width="7" d="M-35 160v-320h70v320" class="primary" style="display:block" transform="translate(215 215)"/><g fill="#FFC638" style="display:block"><path d="M150 233.25c0-1.656-1.344-3-3-3H83c-1.656 0-3 1.344-3 3v138.5c0 1.656 1.344 3 3 3h64c1.656 0 3-1.344 3-3z" class="quaternary"/><path fill-opacity=".5" d="M17.5-92.25c0-1.656-1.344-3-3-3h-29c-1.656 0-3 1.344-3 3v138.5c0 1.656 1.344 3 3 3h29c1.656 0 3-1.344 3-3z" class="quaternary" style="mix-blend-mode:multiply" transform="translate(97 325.5)"/></g><path fill="none" stroke="#121330" stroke-linejoin="round" stroke-width="7" d="M-35 72.5v-145h70v145" class="primary" style="display:block" transform="translate(115 302.5)"/><path fill="none" stroke="#121330" stroke-linecap="round" stroke-linejoin="round" stroke-width="7" d="M160 0h-320" class="primary" style="display:block" transform="translate(215 375)"/></g><g clip-path="url(#e)" style="display:none"><g style="display:none"><path class="tertiary"/><path class="tertiary" style="mix-blend-mode:multiply"/></g><path fill="none" class="primary" style="display:none"/><g style="display:none"><path class="secondary"/><path class="secondary" style="mix-blend-mode:multiply"/></g><path fill="none" class="primary" style="display:none"/><g style="display:none"><path class="quaternary"/><path class="quaternary" style="mix-blend-mode:multiply"/></g><path fill="none" class="primary" style="display:none"/><path fill="none" class="primary" style="display:none"/></g><g clip-path="url(#f)" style="display:none"><g style="display:none"><path class="tertiary"/><path class="tertiary" style="mix-blend-mode:multiply"/></g><path fill="none" class="primary" style="display:none"/><g style="display:none"><path class="secondary"/><path class="secondary" style="mix-blend-mode:multiply"/></g><path fill="none" class="primary" style="display:none"/><g style="display:none"><path class="quaternary"/><path class="quaternary" style="mix-blend-mode:multiply"/></g><path fill="none" class="primary" style="display:none"/><path fill="none" class="primary" style="display:none"/></g></g></svg>