<svg xmlns="http://www.w3.org/2000/svg" width="430" height="430" style="width:100%;height:100%;transform:translate3d(0,0,0);content-visibility:visible" viewBox="0 0 430 430"><defs><clipPath id="g"><path d="M0 0h430v430H0z"/></clipPath><clipPath id="p"><path d="M0 0h430v430H0z"/></clipPath><clipPath id="q"><path d="M0 0h430v430H0z"/></clipPath><clipPath id="r"><path d="M0 0h430v430H0z"/></clipPath><clipPath id="l"><path d="M0 0h430v430H0z"/></clipPath><clipPath id="m"><path d="M0 0h430v430H0z"/></clipPath><clipPath id="n"><path d="M0 0h430v430H0z"/></clipPath><clipPath id="h"><path d="M0 0h430v430H0z"/></clipPath><clipPath id="i"><path d="M0 0h430v430H0z"/></clipPath><clipPath id="j"><path d="M0 0h430v430H0z"/></clipPath><filter id="a" width="100%" height="100%" x="0%" y="0%" filterUnits="objectBoundingBox"><feComponentTransfer in="SourceGraphic"><feFuncA tableValues="1.0 0.0" type="table"/></feComponentTransfer></filter><filter id="c" width="100%" height="100%" x="0%" y="0%" filterUnits="objectBoundingBox"><feComponentTransfer in="SourceGraphic"><feFuncA tableValues="1.0 0.0" type="table"/></feComponentTransfer></filter><filter id="e" width="100%" height="100%" x="0%" y="0%" filterUnits="objectBoundingBox"><feComponentTransfer in="SourceGraphic"><feFuncA tableValues="1.0 0.0" type="table"/></feComponentTransfer></filter><mask id="s" mask-type="alpha" maskUnits="userSpaceOnUse"><g filter="url(#a)"><path fill="#fff" d="M0 0h430v430H0z" opacity="0"/><use xmlns:ns1="http://www.w3.org/1999/xlink" ns1:href="#b"/></g></mask><mask id="o" mask-type="alpha" maskUnits="userSpaceOnUse"><g filter="url(#c)"><path fill="#fff" d="M0 0h430v430H0z" opacity="0"/><use xmlns:ns2="http://www.w3.org/1999/xlink" ns2:href="#d"/></g></mask><mask id="k" mask-type="alpha" maskUnits="userSpaceOnUse"><g filter="url(#e)"><path fill="#fff" d="M0 0h430v430H0z" opacity="0"/><use xmlns:ns3="http://www.w3.org/1999/xlink" ns3:href="#f"/></g></mask><g id="b" style="display:none"><path fill-opacity="0" stroke-linecap="round" stroke-linejoin="round"/><path/></g><g id="d" style="display:block"><path fill-opacity="0" stroke="#08A88A" stroke-linecap="round" stroke-linejoin="round" stroke-width="0" d="m265.52 96.763 11.002 45.681 33.862 44.604s-12.013 18.856-30.093 7.167L250.28 154.61l-15.25-55.848"/><path fill="red" d="m265.52 96.763 11.002 45.681 33.862 44.604s-12.013 18.856-30.093 7.167L250.28 154.61l-15.25-55.848"/></g><g id="f" style="display:none"><path fill-opacity="0" stroke-linecap="round" stroke-linejoin="round"/><path/></g></defs><g clip-path="url(#g)"><g clip-path="url(#h)" style="display:none"><g clip-path="url(#i)" style="display:none"><path class="secondary" style="display:none"/><g style="display:none"><path class="quinary"/><path class="quaternary"/></g><g clip-path="url(#j)" style="display:none"><path fill="none" class="primary" style="display:none"/><path fill="none" class="primary" style="display:none"/><path fill="none" class="primary" style="display:none"/><path fill="none" class="primary" style="display:none"/><path fill="none" class="primary" style="display:none"/><path fill="none" class="primary" style="display:none"/><path fill="none" class="primary" style="display:none"/><path fill="none" class="primary" style="display:none"/><g style="display:none"><path class="tertiary"/><path fill="none" class="primary"/></g></g><path class="secondary" style="display:none"/><path class="senary" style="display:none"/><path class="tertiary" style="display:none"/><path fill="none" class="primary" style="display:none"/><g mask="url(#k)" style="display:none"><path fill="none" class="primary"/></g><path fill="none" class="primary" style="display:none"/><path fill="none" class="primary" style="display:none"/></g></g><g clip-path="url(#l)" style="display:block"><g clip-path="url(#m)" style="display:block"><path fill="#2CA48D" d="M24.328-42.732c9.812.622 19.061 6.259 23.865 15.656a28.75 28.75 0 0 1 1.764 22.004C47.686 1.95 42.743 8.1 35.649 11.727l-60.755 31.06-26.256-51.358 60.755-31.06c8.361-3.739 14.604-3.134 14.935-3.101" class="secondary" style="display:block" transform="translate(215.21 118.502)"/><g style="display:block"><path fill="#F8C8C0" d="M321.459 73.521a19.6 19.6 0 0 1-5.33 4.87l-23.25 14.47c-2.78 1.73-6.47.87-8.2-1.91l-8.67-13.95c-5.79-9.29-2.91-21.63 6.38-27.41l1.6-.99 9.81-6.1c9.29-5.78 21.62-2.91 27.4 6.38l1.31 2.11c4.46 7.17 3.77 16.15-1.05 22.53" class="quinary"/><path fill="#B16836" d="M321.459 73.521c-.4-.07-.78-.3-1.02-.69l-8.36-13.09a6.47 6.47 0 0 0-8.93-1.98 6.45 6.45 0 0 1-4.88.86 6.43 6.43 0 0 1-4.06-2.83l-3.17-4.97a5.74 5.74 0 0 0-7.05-2.22l9.81-6.1c9.29-5.78 21.62-2.91 27.4 6.38l1.31 2.11c4.46 7.17 3.77 16.15-1.05 22.53" class="quaternary"/></g><g clip-path="url(#n)" style="display:block" transform="translate(-2 -5.5)"><path fill="none" stroke="#121330" stroke-linecap="round" stroke-linejoin="round" stroke-width="7" d="M29.193 73.942-29.193-73.942" class="primary" style="display:block" transform="translate(164.751 251.724)"/><path fill="none" stroke="#121330" stroke-linecap="round" stroke-linejoin="round" stroke-width="7" d="M-3.245 57.66h-90.857l53.51-97.419L94.102-57.66z" class="primary" style="display:block" transform="translate(197.189 268.006)"/><path fill="none" stroke="#121330" stroke-linecap="round" stroke-linejoin="round" stroke-width="7" d="M-69.749 0c0 38.521 31.228 69.749 69.749 69.749S69.749 38.521 69.749 0 38.521-69.749 0-69.749-69.749-38.521-69.749 0" class="primary" style="display:block" transform="translate(103.087 325.811)"/><path fill="none" stroke="#121330" stroke-linecap="round" stroke-linejoin="round" stroke-width="7" d="M-21.795-21.795c0 24.073 19.508 43.59 43.59 43.59" class="primary" style="display:block" transform="translate(81.296 347.605)"/><path fill="none" stroke="#121330" stroke-linecap="round" stroke-linejoin="round" stroke-width="7" d="M-69.749 0c0 38.521 31.228 69.749 69.749 69.749S69.749 38.521 69.749 0 38.521-69.749 0-69.749-69.749-38.521-69.749 0" class="primary" style="display:block" transform="translate(332.057 325.811)"/><path fill="none" stroke="#121330" stroke-linecap="round" stroke-linejoin="round" stroke-width="7" d="M-21.795-21.795c0 24.073 19.508 43.59 43.59 43.59" class="primary" style="display:block" transform="translate(310.295 347.605)"/><path fill="none" stroke="#121330" stroke-linecap="round" stroke-linejoin="round" stroke-width="7" d="M-19.16-11.992s34.587-.081 34.654 0c8.667 10.435-.75 24.02-.75 24.02" class="primary" style="display:block" transform="translate(304.173 204.556)"/><path fill="none" stroke="#121330" stroke-linecap="round" stroke-linejoin="round" stroke-width="7" d="M23.522 66.623-23.522-66.623" class="primary" style="display:block" transform="translate(308.535 259.187)"/><g style="display:block"><path fill="#EBE6EE" d="M150.206 177.782h-38.67" class="tertiary"/><path fill="none" stroke="#121330" stroke-linecap="round" stroke-linejoin="round" stroke-width="7" d="M150.206 177.782h-38.67" class="primary"/></g></g><path fill="#2CA48D" d="M-7.187-50.637 3.815-4.956l33.862 44.604S25.664 58.504 7.584 46.815L-22.427 7.21l-15.25-55.848" class="secondary" style="display:block" transform="translate(272.706 147.401)"/><path fill="#636D78" d="m6.083-45.564 27.97 38.836c7.605 7.474 8.092 19.572 1.114 27.634L6.171 65.747s10.333 25.749-2 31.166l-38.49-33.144L-.874 8.644l-33.977-49.071c-3.311-4.785-11.159-23.148-.161-42.077 4.474-7.7 10.74-12.118 14.732-14.409" class="senary" style="display:block" transform="translate(184.162 206.837)"/><path fill="#EBE6EE" d="M6.171 65.747s10.333 25.749-2 31.166l-38.49-33.144 10.46-17.24" class="tertiary" style="display:block" transform="translate(184.162 206.837)"/><path fill="none" stroke="#121330" stroke-linecap="round" stroke-linejoin="round" stroke-width="7" d="m6.083-45.564 27.97 38.836c7.605 7.474 8.092 19.572 1.114 27.634L6.171 65.747s10.333 25.749-2 31.166l-38.49-33.144L-.874 8.644l-33.977-49.071c-3.311-4.785-11.159-23.148-.161-42.077 4.474-7.7 10.74-12.118 14.732-14.409" class="primary" style="display:block" transform="translate(184.162 206.837)"/><g mask="url(#o)" style="display:block"><path fill="none" stroke="#121330" stroke-linecap="round" stroke-linejoin="round" stroke-width="7" d="M239.538 75.769c9.812.622 19.061 6.259 23.865 15.656a28.75 28.75 0 0 1 1.764 22.004c-2.271 7.022-7.214 13.172-14.308 16.799l-60.755 31.06-26.256-51.358 60.755-31.06c8.361-3.739 14.604-3.134 14.935-3.101" class="primary"/></g><path fill="none" stroke="#121330" stroke-linecap="round" stroke-linejoin="round" stroke-width="7" d="m-23.253 10.367 8.677 13.949c1.729 2.779 5.418 3.638 8.197 1.909l23.248-14.462c9.292-5.78 12.164-18.112 6.384-27.404l-1.311-2.108c-5.78-9.292-18.112-12.164-27.404-6.384l-11.407 7.096c-9.292 5.78-12.164 18.112-6.384 27.404" class="primary" style="display:block" transform="translate(299.35 66.575)"/><path fill="none" stroke="#121330" stroke-linecap="round" stroke-linejoin="round" stroke-width="7" d="M-7.187-50.637 3.815-4.956l33.862 44.604S25.664 58.504 7.584 46.815L-22.427 7.21l-15.25-55.848" class="primary" style="display:block" transform="translate(272.707 147.4)"/></g></g><g clip-path="url(#p)" style="display:none"><g clip-path="url(#q)" style="display:none"><path class="secondary" style="display:none"/><g style="display:none"><path class="quinary"/><path class="quaternary"/></g><g clip-path="url(#r)" style="display:none"><path fill="none" class="primary" style="display:none"/><path fill="none" class="primary" style="display:none"/><path fill="none" class="primary" style="display:none"/><path fill="none" class="primary" style="display:none"/><path fill="none" class="primary" style="display:none"/><path fill="none" class="primary" style="display:none"/><path fill="none" class="primary" style="display:none"/><path fill="none" class="primary" style="display:none"/><g style="display:none"><path class="tertiary"/><path fill="none" class="primary"/></g></g><path class="secondary" style="display:none"/><path class="senary" style="display:none"/><path class="tertiary" style="display:none"/><path fill="none" class="primary" style="display:none"/><g mask="url(#s)" style="display:none"><path fill="none" class="primary"/></g><path fill="none" class="primary" style="display:none"/><path fill="none" class="primary" style="display:none"/></g></g></g></svg>