<svg width="50" height="50" viewBox="0 0 50 50" fill="none" xmlns="http://www.w3.org/2000/svg">
<path d="M25.3409 34.4318C26.5909 34.4318 27.6613 34.1386 28.5523 33.5523C29.4432 32.9659 29.8879 32.047 29.8863 30.7955C29.8863 29.697 29.4227 28.8068 28.4954 28.125C27.5682 27.4432 25.9106 26.6667 23.5227 25.7955C21.2879 25 19.65 24.053 18.6091 22.9545C17.5682 21.8561 17.047 20.4167 17.0454 18.6364C17.0454 17.0833 17.5856 15.6727 18.6659 14.4045C19.7462 13.1364 21.2136 12.3121 23.0682 11.9318V11.0795C23.0682 10.5492 23.2674 10.0856 23.6659 9.68864C24.0644 9.29167 24.528 9.09242 25.0568 9.09091C25.5856 9.08939 26.05 9.28864 26.45 9.68864C26.85 10.0886 27.0485 10.5523 27.0454 11.0795V11.9318C28.1439 12.0076 29.1576 12.3773 30.0863 13.0409C31.0151 13.7045 31.7629 14.5091 32.3295 15.4545C32.5947 15.8712 32.6136 16.3167 32.3863 16.7909C32.1591 17.2652 31.7803 17.5962 31.25 17.7841C30.7576 17.9735 30.2651 17.9924 29.7727 17.8409C29.2803 17.6894 28.8826 17.4053 28.5795 16.9886C28.2007 16.5341 27.7273 16.1652 27.1591 15.8818C26.5909 15.5985 25.9091 15.4561 25.1136 15.4545C23.7879 15.4545 22.7742 15.7386 22.0727 16.3068C21.3712 16.875 21.0212 17.6515 21.0227 18.6364C21.0242 19.6212 21.4598 20.3977 22.3295 20.9659C23.1992 21.5341 24.7712 22.197 27.0454 22.9545C29.7727 23.9394 31.5909 25.0947 32.5 26.4205C33.4091 27.7462 33.8636 29.2045 33.8636 30.7955C33.8636 31.8939 33.6742 32.8598 33.2954 33.6932C32.9166 34.5265 32.4144 35.2371 31.7886 35.825C31.1629 36.4129 30.4341 36.8864 29.6023 37.2455C28.7704 37.6045 27.8803 37.8788 26.9318 38.0682V38.9205C26.9318 39.4508 26.7326 39.9152 26.3341 40.3136C25.9356 40.7121 25.472 40.9106 24.9432 40.9091C24.4144 40.9076 23.9507 40.7091 23.5523 40.3136C23.1538 39.9182 22.9545 39.4538 22.9545 38.9205V37.9545C21.5151 37.6515 20.2841 37.0833 19.2614 36.25C18.2386 35.4167 17.4242 34.3561 16.8182 33.0682C16.5909 32.5379 16.6007 32.0265 16.8477 31.5341C17.0947 31.0417 17.4826 30.7008 18.0114 30.5114C18.5038 30.322 18.9962 30.3311 19.4886 30.5386C19.981 30.7462 20.3598 31.078 20.625 31.5341C21.1553 32.5189 21.828 33.2477 22.6432 33.7205C23.4583 34.1932 24.3576 34.4303 25.3409 34.4318ZM25 50C20.7576 50 16.8561 49.0341 13.2954 47.1023C9.73484 45.1705 6.81818 42.5947 4.54545 39.375V43.1818C4.54545 43.8258 4.32727 44.3659 3.89091 44.8023C3.45454 45.2386 2.91515 45.4561 2.27273 45.4545C1.6303 45.453 1.09091 45.2348 0.654545 44.8C0.218182 44.3652 0 43.8258 0 43.1818V34.0909C0 33.447 0.218182 32.9076 0.654545 32.4727C1.09091 32.0379 1.6303 31.8197 2.27273 31.8182H11.3636C12.0076 31.8182 12.5477 32.0364 12.9841 32.4727C13.4204 32.9091 13.6379 33.4485 13.6364 34.0909C13.6348 34.7333 13.4167 35.2735 12.9818 35.7114C12.547 36.1492 12.0076 36.3667 11.3636 36.3636H8.01136C9.82954 39.0909 12.2257 41.2879 15.2 42.9545C18.1742 44.6212 21.4409 45.4545 25 45.4545C30.3409 45.4545 34.9341 43.6742 38.7795 40.1136C42.625 36.553 44.8121 32.178 45.3409 26.9886C45.4166 26.3826 45.6818 25.8992 46.1363 25.5386C46.5909 25.178 47.1212 24.9985 47.7272 25C48.3712 25 48.9204 25.1992 49.375 25.5977C49.8295 25.9962 50.0189 26.4788 49.9431 27.0455C49.678 30.2652 48.8447 33.2667 47.4432 36.05C46.0416 38.8333 44.2235 41.2576 41.9886 43.3227C39.7538 45.3879 37.1879 47.0167 34.2909 48.2091C31.3939 49.4015 28.297 49.9985 25 50ZM25 4.54545C19.6591 4.54545 15.0667 6.32576 11.2227 9.88636C7.37878 13.447 5.19091 17.822 4.65909 23.0114C4.58333 23.6174 4.31818 24.1008 3.86363 24.4614C3.40909 24.822 2.87879 25.0015 2.27273 25C1.62879 25 1.07954 24.8015 0.625 24.4045C0.170454 24.0076 -0.0189394 23.5242 0.0568181 22.9545C0.321969 19.7348 1.1553 16.7333 2.55682 13.95C3.95833 11.1667 5.77651 8.74242 8.01136 6.67727C10.2462 4.61212 12.8129 2.98333 15.7114 1.79091C18.6098 0.598485 21.706 0.00151515 25 0C29.2424 0 33.1439 0.965909 36.7045 2.89773C40.2651 4.82955 43.1818 7.4053 45.4545 10.625V6.81818C45.4545 6.17424 45.6727 5.63485 46.1091 5.2C46.5454 4.76515 47.0848 4.54697 47.7272 4.54545C48.3697 4.54394 48.9098 4.76212 49.3477 5.2C49.7856 5.63788 50.003 6.17727 50 6.81818V15.9091C50 16.553 49.7818 17.0932 49.3454 17.5295C48.9091 17.9659 48.3697 18.1833 47.7272 18.1818H38.6363C37.9924 18.1818 37.453 17.9636 37.0182 17.5273C36.5833 17.0909 36.3651 16.5515 36.3636 15.9091C36.3621 15.2667 36.5803 14.7273 37.0182 14.2909C37.456 13.8545 37.9954 13.6364 38.6363 13.6364H41.9886C40.1704 10.9091 37.775 8.71212 34.8022 7.04545C31.8295 5.37879 28.5621 4.54545 25 4.54545Z" fill="#B31313"/>
</svg>
