<svg xmlns="http://www.w3.org/2000/svg" width="430" height="430" style="width:100%;height:100%;transform:translate3d(0,0,0);content-visibility:visible" viewBox="0 0 430 430"><defs><clipPath id="u"><path d="M0 0h430v430H0z"/></clipPath><clipPath id="P"><path d="M0 0h430v430H0z"/></clipPath><clipPath id="al"><path d="M0 0h273v273H0z"/></clipPath><clipPath id="ak"><path d="M0 0h273v273H0z"/></clipPath><clipPath id="q"><path d="M0 0h273v273H0z"/></clipPath><clipPath id="ai"><path d="M0 0h273v273H0z"/></clipPath><clipPath id="Q"><path d="M0 0h430v430H0z"/></clipPath><clipPath id="ag"><path d="M0 0h273v273H0z"/></clipPath><clipPath id="af"><path d="M0 0h273v273H0z"/></clipPath><clipPath id="ae"><path d="M0 0h273v273H0z"/></clipPath><clipPath id="R"><path d="M0 0h430v430H0z"/></clipPath><clipPath id="ad"><path d="M0 0h273v273H0z"/></clipPath><clipPath id="ac"><path d="M0 0h273v273H0z"/></clipPath><clipPath id="ab"><path d="M0 0h273v273H0z"/></clipPath><clipPath id="S"><path d="M0 0h430v430H0z"/></clipPath><clipPath id="aa"><path d="M0 0h273v273H0z"/></clipPath><clipPath id="Z"><path d="M0 0h273v273H0z"/></clipPath><clipPath id="Y"><path d="M0 0h273v273H0z"/></clipPath><clipPath id="X"><path d="M0 0h273v273H0z"/></clipPath><clipPath id="W"><path d="M0 0h273v273H0z"/></clipPath><clipPath id="V"><path d="M0 0h273v273H0z"/></clipPath><clipPath id="U"><path d="M0 0h273v273H0z"/></clipPath><clipPath id="T"><path d="M0 0h273v273H0z"/></clipPath><clipPath id="K"><path d="M0 0h430v430H0z"/></clipPath><clipPath id="O"><path d="M0 0h273v273H0z"/></clipPath><clipPath id="r"><path d="M0 0h430v430H0z"/></clipPath><clipPath id="L"><path d="M0 0h430v430H0z"/></clipPath><clipPath id="B"><path d="M0 0h430v430H0z"/></clipPath><clipPath id="J"><path d="M0 0h273v273H0z"/></clipPath><clipPath id="I"><path d="M0 0h273v273H0z"/></clipPath><clipPath id="s"><path d="M0 0h273v273H0z"/></clipPath><clipPath id="G"><path d="M0 0h273v273H0z"/></clipPath><clipPath id="E"><path d="M0 0h273v273H0z"/></clipPath><clipPath id="v"><path d="M0 0h430v430H0z"/></clipPath><clipPath id="A"><path d="M0 0h273v273H0z"/></clipPath><clipPath id="z"><path d="M0 0h273v273H0z"/></clipPath><clipPath id="t"><path d="M0 0h273v273H0z"/></clipPath><clipPath id="x"><path d="M0 0h273v273H0z"/></clipPath><mask id="aj" mask-type="alpha"><use xmlns:ns1="http://www.w3.org/1999/xlink" ns1:href="#a"/></mask><mask id="ah" mask-type="alpha"><use xmlns:ns2="http://www.w3.org/1999/xlink" ns2:href="#b"/></mask><mask id="N" mask-type="alpha" maskUnits="userSpaceOnUse"><g filter="url(#d)"><path fill="#fff" d="M0 0h430v430H0z" opacity="0"/><use xmlns:ns3="http://www.w3.org/1999/xlink" ns3:href="#e"/></g></mask><mask id="M" mask-type="alpha"><use xmlns:ns4="http://www.w3.org/1999/xlink" ns4:href="#f"/></mask><mask id="H" mask-type="alpha"><use xmlns:ns5="http://www.w3.org/1999/xlink" ns5:href="#g"/></mask><mask id="F" mask-type="alpha"><use xmlns:ns6="http://www.w3.org/1999/xlink" ns6:href="#i"/></mask><mask id="D" mask-type="alpha" maskUnits="userSpaceOnUse"><g filter="url(#k)"><path fill="#fff" d="M0 0h430v430H0z" opacity="0"/><use xmlns:ns7="http://www.w3.org/1999/xlink" ns7:href="#l"/></g></mask><mask id="C" mask-type="alpha"><use xmlns:ns8="http://www.w3.org/1999/xlink" ns8:href="#m"/></mask><mask id="y" mask-type="alpha"><use xmlns:ns9="http://www.w3.org/1999/xlink" ns9:href="#n"/></mask><mask id="w" mask-type="alpha"><use xmlns:ns10="http://www.w3.org/1999/xlink" ns10:href="#o"/></mask><g id="a" clip-path="url(#q)" style="display:none"><path class="secondary"/><path class="secondary" style="mix-blend-mode:multiply"/></g><g id="b" style="display:none"><path class="primary"/><path class="primary"/><path class="primary" style="mix-blend-mode:multiply"/><path class="primary"/><path class="primary"/><path class="primary" style="mix-blend-mode:multiply"/></g><g id="f" clip-path="url(#r)" style="display:block"><path fill="#FFC638" d="M325 109c0 15.453-12.547 28-28 28H116c-15.453 0-28-12.547-28-28s12.547-28 28-28h181c15.453 0 28 12.547 28 28" class="secondary" style="display:block"/><g fill="#FFC638" style="display:block"><path d="M271 165c0 15.453-12.547 28-28 28H62c-15.453 0-28-12.547-28-28s12.547-28 28-28h181c15.453 0 28 12.547 28 28" class="secondary"/><path fill-opacity=".5" d="M118.5 0c0 15.453-12.547 28-28 28h-181c-15.453 0-28-12.547-28-28s12.547-28 28-28h181c15.453 0 28 12.547 28 28" class="secondary" style="mix-blend-mode:multiply" transform="translate(152.5 165)"/></g><path fill="#FFC638" d="M324 221c0 15.453-12.547 28-28 28H115c-15.453 0-28-12.547-28-28s12.547-28 28-28h181c15.453 0 28 12.547 28 28" class="secondary" style="display:block"/><g fill="#FFC638" style="display:block"><path d="M299 277c0 15.453-12.547 28-28 28H90c-15.453 0-28-12.547-28-28s12.547-28 28-28h181c15.453 0 28 12.547 28 28" class="secondary"/><path fill-opacity=".5" d="M118.5 0c0 15.453-12.547 28-28 28h-181c-15.453 0-28-12.547-28-28s12.547-28 28-28h181c15.453 0 28 12.547 28 28" class="secondary" style="mix-blend-mode:multiply" transform="translate(180.5 277)"/></g><path fill-opacity="0" stroke="#121330" stroke-linejoin="round" stroke-width="7" d="M118.5 0c0 15.453-12.547 28-28 28h-181c-15.453 0-28-12.547-28-28s12.547-28 28-28h181c15.453 0 28 12.547 28 28z" class="primary" style="display:block" transform="translate(206.5 109)"/><path fill-opacity="0" stroke="#121330" stroke-linejoin="round" stroke-width="7" d="M118.5 0c0 15.453-12.547 28-28 28h-181c-15.453 0-28-12.547-28-28s12.547-28 28-28h181c15.453 0 28 12.547 28 28z" class="primary" style="display:block" transform="translate(152.5 165)"/><path fill-opacity="0" stroke="#121330" stroke-linejoin="round" stroke-width="7" d="M118.5 0c0 15.453-12.547 28-28 28h-181c-15.453 0-28-12.547-28-28s12.547-28 28-28h181c15.453 0 28 12.547 28 28z" class="primary" style="display:block" transform="translate(205.5 221)"/><path fill-opacity="0" stroke="#121330" stroke-linejoin="round" stroke-width="7" d="M118.5 0c0 15.453-12.547 28-28 28h-181c-15.453 0-28-12.547-28-28s12.547-28 28-28h181c15.453 0 28 12.547 28 28z" class="primary" style="display:block" transform="translate(180.5 277)"/></g><g id="g" clip-path="url(#s)" style="display:none"><path class="secondary"/><path class="secondary" style="mix-blend-mode:multiply"/></g><g id="i" style="display:none"><path class="primary"/><path class="primary"/><path class="primary" style="mix-blend-mode:multiply"/><path class="primary"/><path class="primary"/><path class="primary" style="mix-blend-mode:multiply"/></g><g id="m" style="display:none"><path class="primary"/><path class="primary"/><path class="primary" style="mix-blend-mode:multiply"/><path class="primary"/><path class="primary"/><path class="primary" style="mix-blend-mode:multiply"/></g><g id="n" clip-path="url(#t)" style="display:none"><path class="secondary"/><path class="secondary" style="mix-blend-mode:multiply"/></g><g id="o" style="display:none"><path class="secondary"/><path class="secondary"/><path class="secondary" style="mix-blend-mode:multiply"/><path class="secondary"/><path class="secondary"/><path class="secondary" style="mix-blend-mode:multiply"/></g><filter id="d" width="100%" height="100%" x="0%" y="0%" filterUnits="objectBoundingBox"><feComponentTransfer in="SourceGraphic"><feFuncA tableValues="1.0 0.0" type="table"/></feComponentTransfer></filter><filter id="k" width="100%" height="100%" x="0%" y="0%" filterUnits="objectBoundingBox"><feComponentTransfer in="SourceGraphic"><feFuncA tableValues="1.0 0.0" type="table"/></feComponentTransfer></filter><path id="e" fill="red" d="m-77.5-147-64 43.5 220 246 51-51z" style="display:block" transform="translate(275.5 254.25)"/><path id="l" style="display:none"/></defs><g clip-path="url(#u)"><g clip-path="url(#v)" style="display:none"><g style="display:none"><path class="secondary"/><path class="secondary"/><path class="secondary" style="mix-blend-mode:multiply"/><path class="secondary"/><path class="secondary"/><path class="secondary" style="mix-blend-mode:multiply"/></g><g mask="url(#w)" style="mix-blend-mode:multiply;display:none"><path class="secondary"/></g><g fill="none" style="display:none"><path class="primary"/><path class="primary"/><path class="primary"/><path class="primary"/></g><g clip-path="url(#x)" style="display:none"><path class="secondary"/><path class="secondary" style="mix-blend-mode:multiply"/></g><g mask="url(#y)" style="display:none"><path class="secondary"/></g><g fill="none" clip-path="url(#z)" style="display:none"><path class="primary" style="display:none"/><path class="primary" style="display:none"/><path class="primary" style="display:none"/><path class="primary" style="display:none"/></g><g clip-path="url(#A)" style="display:none"><path fill="none" class="tertiary" style="display:none"/></g></g><g clip-path="url(#B)" style="display:none"><g style="display:none"><path class="secondary"/><path class="secondary"/><path class="secondary" style="mix-blend-mode:multiply"/><path class="secondary"/><path class="secondary"/><path class="secondary" style="mix-blend-mode:multiply"/></g><g fill="none" style="display:none"><path class="primary"/><path class="primary"/><path class="primary"/><path class="primary"/></g><g mask="url(#C)" style="mix-blend-mode:multiply;display:none"><path class="secondary"/></g><path class="secondary" style="display:none"/><g mask="url(#D)" style="display:none"><path class="secondary"/><path class="secondary" style="mix-blend-mode:multiply"/></g><g clip-path="url(#E)" style="display:none"><path fill="none" class="tertiary" style="display:none"/></g><path fill="none" class="primary" style="display:none"/><g mask="url(#F)" style="mix-blend-mode:multiply;display:none"><path class="secondary"/></g><g clip-path="url(#G)" style="display:none"><path class="secondary"/><path class="secondary" style="mix-blend-mode:multiply"/></g><g mask="url(#H)" style="display:none"><path class="secondary"/></g><g fill="none" clip-path="url(#I)" style="display:none"><path class="primary" style="display:none"/><path class="primary" style="display:none"/><path class="primary" style="display:none"/><path class="primary" style="display:none"/></g><g clip-path="url(#J)" style="display:none"><path fill="none" class="tertiary" style="display:none"/></g></g><g clip-path="url(#K)" style="display:block"><g clip-path="url(#L)" style="display:block"><path fill="#FFC638" d="M325 109c0 15.453-12.547 28-28 28H116c-15.453 0-28-12.547-28-28s12.547-28 28-28h181c15.453 0 28 12.547 28 28" class="secondary" style="display:block"/><g fill="#FFC638" style="display:block"><path d="M271 165c0 15.453-12.547 28-28 28H62c-15.453 0-28-12.547-28-28s12.547-28 28-28h181c15.453 0 28 12.547 28 28" class="secondary"/><path fill-opacity=".5" d="M118.5 0c0 15.453-12.547 28-28 28h-181c-15.453 0-28-12.547-28-28s12.547-28 28-28h181c15.453 0 28 12.547 28 28" class="secondary" style="mix-blend-mode:multiply" transform="translate(152.5 165)"/></g><path fill="#FFC638" d="M324 221c0 15.453-12.547 28-28 28H115c-15.453 0-28-12.547-28-28s12.547-28 28-28h181c15.453 0 28 12.547 28 28" class="secondary" style="display:block"/><g fill="#FFC638" style="display:block"><path d="M299 277c0 15.453-12.547 28-28 28H90c-15.453 0-28-12.547-28-28s12.547-28 28-28h181c15.453 0 28 12.547 28 28" class="secondary"/><path fill-opacity=".5" d="M118.5 0c0 15.453-12.547 28-28 28h-181c-15.453 0-28-12.547-28-28s12.547-28 28-28h181c15.453 0 28 12.547 28 28" class="secondary" style="mix-blend-mode:multiply" transform="translate(180.5 277)"/></g><path fill="none" stroke="#121330" stroke-linejoin="round" stroke-width="7" d="M118.5 0c0 15.453-12.547 28-28 28h-181c-15.453 0-28-12.547-28-28s12.547-28 28-28h181c15.453 0 28 12.547 28 28z" class="primary" style="display:block" transform="translate(206.5 109)"/><path fill="none" stroke="#121330" stroke-linejoin="round" stroke-width="7" d="M118.5 0c0 15.453-12.547 28-28 28h-181c-15.453 0-28-12.547-28-28s12.547-28 28-28h181c15.453 0 28 12.547 28 28z" class="primary" style="display:block" transform="translate(152.5 165)"/><path fill="none" stroke="#121330" stroke-linejoin="round" stroke-width="7" d="M118.5 0c0 15.453-12.547 28-28 28h-181c-15.453 0-28-12.547-28-28s12.547-28 28-28h181c15.453 0 28 12.547 28 28z" class="primary" style="display:block" transform="translate(205.5 221)"/><path fill="none" stroke="#121330" stroke-linejoin="round" stroke-width="7" d="M118.5 0c0 15.453-12.547 28-28 28h-181c-15.453 0-28-12.547-28-28s12.547-28 28-28h181c15.453 0 28 12.547 28 28z" class="primary" style="display:block" transform="translate(180.5 277)"/></g><g mask="url(#M)" opacity=".75" style="mix-blend-mode:multiply;display:block"><path fill="#FFC638" d="M365.56 224.746a111 111 0 0 0-.098-4.423c-2.42-57.109-49.327-115.032-118.902-113.307-79.86 1.98-120.61 69.48-120.17 123.16 1.31 35.82 26.819 117.265 124.459 115.665 66.851-1.095 114.838-53.585 114.711-121.095" class="secondary" opacity="1"/></g><path fill="#FFC638" d="M119.26-.054a99 99 0 0 0-.128-4.101C116.383-57.306 71.071-119.022.26-117.784c-82.171 1.437-120.61 69.48-120.17 123.16 1.31 35.82 26.836 113.258 124.459 115.665C71.65 122.696 119.9 62.446 119.26-.054" class="secondary" style="display:block" transform="translate(274.4 250.65)"/><g fill="#FFC638" mask="url(#N)" style="display:block"><path d="M393.66 250.596a99 99 0 0 0-.128-4.101c-2.749-53.151-48.061-114.867-118.872-113.629-82.171 1.437-120.61 69.48-120.17 123.16 1.31 35.82 26.836 113.258 124.459 115.665 67.101 1.655 115.351-58.595 114.711-121.095" class="secondary"/><path fill-opacity=".5" d="M119.26-.054a99 99 0 0 0-.128-4.101C116.383-57.306 71.071-119.022.26-117.784c-82.171 1.437-120.61 69.48-120.17 123.16 1.31 35.82 26.836 113.258 124.459 115.665C71.65 122.696 119.9 62.446 119.26-.054" class="secondary" style="mix-blend-mode:multiply" transform="translate(274.4 250.65)"/></g><path fill="none" stroke="#121330" stroke-linecap="round" stroke-linejoin="round" stroke-width="7" d="M119.26-.054a99 99 0 0 0-.128-4.101C116.383-57.306 71.071-119.022.26-117.784c-82.171 1.437-120.61 69.48-120.17 123.16 1.31 35.82 26.836 113.258 124.459 115.665C71.65 122.696 119.9 62.446 119.26-.054" class="primary" style="display:block" transform="translate(274.4 250.65)"/><g clip-path="url(#O)" style="display:block" transform="translate(137.5 115.813)"><path fill="none" stroke="#B16836" stroke-linecap="round" stroke-linejoin="round" stroke-width="7" d="M0 84.2c46.502 0 84.2-37.698 84.2-84.2S46.502-84.2 0-84.2-84.2-46.502-84.2 0-46.502 84.2 0 84.2" class="tertiary" style="display:block" transform="translate(136 136)"/></g></g><g clip-path="url(#P)" style="display:none"><g clip-path="url(#Q)" style="display:none"><g style="display:none"><path class="secondary"/><path class="secondary" style="mix-blend-mode:multiply"/></g><g style="display:none"><path class="secondary"/><path class="secondary" style="mix-blend-mode:multiply"/></g><g clip-path="url(#R)" style="display:none"><g clip-path="url(#S)" style="display:none"><g clip-path="url(#T)" style="display:none"><path class="secondary"/><path class="secondary" style="mix-blend-mode:multiply"/></g><g fill="none" clip-path="url(#U)" style="display:none"><path class="primary" style="display:none"/><path class="primary" style="display:none"/><path class="primary" style="display:none"/><path class="primary" style="display:none"/></g><g clip-path="url(#V)" style="display:none"><path class="secondary"/><path class="secondary" style="mix-blend-mode:multiply"/></g><path class="secondary" style="display:none"/><g fill="none" clip-path="url(#W)" style="display:none"><path class="primary" style="display:none"/><path class="primary" style="display:none"/><path class="primary" style="display:none"/><path class="primary" style="display:none"/></g><g clip-path="url(#X)" style="display:none"><path fill="none" class="tertiary" style="display:none"/></g><g clip-path="url(#Y)" style="display:none"><path fill="none" class="tertiary" style="display:none"/></g><g clip-path="url(#Z)" style="display:none"><path fill="none" class="tertiary" style="display:none"/></g><g clip-path="url(#aa)" style="display:none"><path fill="none" class="tertiary" style="display:none"/></g></g><g clip-path="url(#ab)" style="display:none"><path class="secondary"/><path class="secondary" style="mix-blend-mode:multiply"/></g><g fill="none" clip-path="url(#ac)" style="display:none"><path class="primary" style="display:none"/><path class="primary" style="display:none"/><path class="primary" style="display:none"/><path class="primary" style="display:none"/></g><g clip-path="url(#ad)" style="display:none"><path fill="none" class="tertiary" style="display:none"/></g></g><g clip-path="url(#ae)" style="display:none"><path class="secondary"/><path class="secondary" style="mix-blend-mode:multiply"/></g><path class="secondary" style="display:none"/><g fill="none" clip-path="url(#af)" style="display:none"><path class="primary" style="display:none"/><path class="primary" style="display:none"/><path class="primary" style="display:none"/><path class="primary" style="display:none"/></g><g clip-path="url(#ag)" style="display:none"><path fill="none" class="tertiary" style="display:none"/></g></g><g style="display:none"><path class="secondary"/><path class="secondary"/><path class="secondary" style="mix-blend-mode:multiply"/><path class="secondary"/><path class="secondary"/><path class="secondary" style="mix-blend-mode:multiply"/></g><g fill="none" style="display:none"><path class="primary"/><path class="primary"/><path class="primary"/><path class="primary"/></g><g mask="url(#ah)" style="mix-blend-mode:multiply;display:none"><path class="secondary"/></g><g clip-path="url(#ai)" style="display:none"><path class="secondary"/><path class="secondary" style="mix-blend-mode:multiply"/></g><g mask="url(#aj)" style="display:none"><path class="secondary"/></g><g fill="none" clip-path="url(#ak)" style="display:none"><path class="primary" style="display:none"/><path class="primary" style="display:none"/><path class="primary" style="display:none"/><path class="primary" style="display:none"/></g><g clip-path="url(#al)" style="display:none"><path fill="none" class="tertiary" style="display:none"/></g></g></g></svg>