<svg width="24" height="24" viewBox="0 0 24 24" fill="none" xmlns="http://www.w3.org/2000/svg">
<g clip-path="url(#clip0_25_211)">
<path d="M24.3893 9.58519L13.9727 -0.414684C13.582 -0.789469 13.0523 -1 12.5 -1C11.9477 -1 11.418 -0.789469 11.0273 -0.414684L0.610689 9.58519C0.416294 9.77042 0.262198 9.9909 0.157361 10.2338C0.0525242 10.4767 -0.000961791 10.7372 1.30905e-05 11.0002V23C1.30905e-05 23.2652 0.10976 23.5196 0.30511 23.7071C0.50046 23.8946 0.765412 24 1.04168 24H9.375C9.65127 24 9.91622 23.8946 10.1116 23.7071C10.3069 23.5196 10.4167 23.2652 10.4167 23V16.0001H14.5833V23C14.5833 23.2652 14.6931 23.5196 14.8884 23.7071C15.0838 23.8946 15.3487 24 15.625 24H23.9583C24.2346 24 24.4995 23.8946 24.6949 23.7071C24.8902 23.5196 25 23.2652 25 23V11.0002C25.001 10.7372 24.9475 10.4767 24.8426 10.2338C24.7378 9.9909 24.5837 9.77042 24.3893 9.58519ZM22.9167 22H16.6667V15.0001C16.6667 14.7349 16.5569 14.4806 16.3616 14.293C16.1662 14.1055 15.9013 14.0001 15.625 14.0001H9.375C9.09874 14.0001 8.83378 14.1055 8.63843 14.293C8.44308 14.4806 8.33334 14.7349 8.33334 15.0001V22H2.08334V11.0002L12.5 1.0003L22.9167 11.0002V22Z" fill="#B31313"/>
</g>
<defs>
<clipPath id="clip0_25_211">
<rect width="24" height="24" fill="white"/>
</clipPath>
</defs>
</svg>
