<svg width="25" height="25" viewBox="0 0 25 25" fill="none" xmlns="http://www.w3.org/2000/svg">
<path d="M25 12.5C25 12.8684 24.8903 13.2216 24.6949 13.4821C24.4996 13.7426 24.2346 13.8889 23.9583 13.8889H1.04167C0.765399 13.8889 0.500448 13.7426 0.305097 13.4821C0.109747 13.2216 0 12.8684 0 12.5C0 12.1316 0.109747 11.7784 0.305097 11.5179C0.500448 11.2574 0.765399 11.1111 1.04167 11.1111H23.9583C24.2346 11.1111 24.4996 11.2574 24.6949 11.5179C24.8903 11.7784 25 12.1316 25 12.5ZM1.04167 2.77778H23.9583C24.2346 2.77778 24.4996 2.63145 24.6949 2.37098C24.8903 2.11051 25 1.75725 25 1.38889C25 1.02053 24.8903 0.667264 24.6949 0.406796C24.4996 0.146329 24.2346 0 23.9583 0H1.04167C0.765399 0 0.500448 0.146329 0.305097 0.406796C0.109747 0.667264 0 1.02053 0 1.38889C0 1.75725 0.109747 2.11051 0.305097 2.37098C0.500448 2.63145 0.765399 2.77778 1.04167 2.77778ZM23.9583 22.2222H1.04167C0.765399 22.2222 0.500448 22.3685 0.305097 22.629C0.109747 22.8895 0 23.2428 0 23.6111C0 23.9795 0.109747 24.3327 0.305097 24.5932C0.500448 24.8537 0.765399 25 1.04167 25H23.9583C24.2346 25 24.4996 24.8537 24.6949 24.5932C24.8903 24.3327 25 23.9795 25 23.6111C25 23.2428 24.8903 22.8895 24.6949 22.629C24.4996 22.3685 24.2346 22.2222 23.9583 22.2222Z" fill="#808080"/>
</svg>
