<svg width="50" height="50" viewBox="0 0 50 50" fill="none" xmlns="http://www.w3.org/2000/svg">
<path fill-rule="evenodd" clip-rule="evenodd" d="M40.8333 41.9452C41.128 41.7242 41.4984 41.6293 41.8631 41.6814C42.2277 41.7334 42.5568 41.9283 42.7778 42.223L46.5278 47.223H48.6111C48.9795 47.223 49.3327 47.3693 49.5932 47.6298C49.8537 47.8903 50 48.2435 50 48.6119C50 48.9803 49.8537 49.3335 49.5932 49.594C49.3327 49.8545 48.9795 50.0008 48.6111 50.0008H41.6667C41.2983 50.0008 40.945 49.8545 40.6846 49.594C40.4241 49.3335 40.2778 48.9803 40.2778 48.6119C40.2778 48.2435 40.4241 47.8903 40.6846 47.6298C40.945 47.3693 41.2983 47.223 41.6667 47.223H43.0556L40.5556 43.8896C40.3345 43.5949 40.2396 43.2245 40.2917 42.8599C40.3438 42.4952 40.5386 42.1662 40.8333 41.9452Z" fill="#B31313"/>
<path fill-rule="evenodd" clip-rule="evenodd" d="M37.5 44.4451C39.6595 44.4447 41.782 43.8849 43.6607 42.8202C45.5394 41.7555 47.1103 40.2222 48.2202 38.3698C49.3301 36.5174 49.9412 34.4091 49.9939 32.2502C50.0467 30.0914 49.5392 27.9557 48.5211 26.0514C47.5029 24.147 46.0088 22.5389 44.1843 21.3837C42.3598 20.2285 40.2671 19.5657 38.1103 19.4599C35.9534 19.3541 33.8059 19.8088 31.8771 20.7798C29.9483 21.7508 28.3039 23.2049 27.1042 25.0005H36.9125C38.7374 24.9993 40.5006 25.6608 41.8745 26.8618C43.2484 28.0629 44.1395 29.722 44.3823 31.5306C44.625 33.3393 44.2029 35.1746 43.1943 36.6954C42.1857 38.2163 40.6592 39.3192 38.8986 39.7993L30.2847 42.1534C32.3935 43.6481 34.9153 44.4491 37.5 44.4451ZM27.8833 39.9312L38.1653 37.1187C39.276 36.8152 40.2388 36.119 40.875 35.1593C41.5112 34.1997 41.7774 33.0417 41.6244 31.9005C41.4713 30.7593 40.9093 29.7125 40.0427 28.9543C39.1762 28.1962 38.0639 27.7783 36.9125 27.7783H25.7111C25.2393 29.1168 24.9988 30.5258 25 31.945C25 34.9812 26.0833 37.7645 27.8833 39.9312Z" fill="#B31313"/>
<path fill-rule="evenodd" clip-rule="evenodd" d="M34.1236 43.9841C32.7488 43.5977 31.4504 42.9785 30.2847 42.1535L38.8986 39.7993C40.6592 39.3193 42.1857 38.2163 43.1943 36.6955C44.2029 35.1747 44.625 33.3394 44.3823 31.5307C44.1396 29.722 43.2484 28.063 41.8745 26.8619C40.5006 25.6608 38.7374 24.9994 36.9125 25.0006H27.1042C27.805 23.9519 28.6606 23.0154 29.6417 22.2228C31.3097 20.8756 33.2962 19.9801 35.4102 19.6224C37.5242 19.2647 39.6947 19.4568 41.713 20.1802C43.7314 20.9036 45.5297 22.134 46.9352 23.7531C48.3407 25.3723 49.3061 27.3257 49.7386 29.4257C50.1711 31.5258 50.0562 33.7017 49.4049 35.7445C48.7536 37.7873 47.5879 39.6282 46.0196 41.0903C44.4514 42.5524 42.5335 43.5865 40.4502 44.0933C38.3669 44.6001 36.1882 44.5625 34.1236 43.9841ZM47.2181 32.234C47.2209 32.1395 47.2222 32.0432 47.2222 31.9451C47.2223 30.6438 46.9611 29.3557 46.4541 28.1572C45.9471 26.9587 45.2047 25.8741 44.2708 24.9679C43.337 24.0616 42.2307 23.352 41.0176 22.8812C39.8044 22.4104 38.5091 22.1879 37.2084 22.2269C39.8389 22.3027 42.3409 23.3815 44.2018 25.2422C46.0628 27.1029 47.1419 29.6034 47.2181 32.234ZM27.8834 39.9313L38.1653 37.1201C39.2772 36.8177 40.2414 36.1217 40.8786 35.1617C41.5158 34.2016 41.7827 33.0427 41.6295 31.9007C41.4764 30.7586 40.9136 29.711 40.046 28.9527C39.1783 28.1945 38.0648 27.7772 36.9125 27.7784H25.7111C25.2393 29.1168 24.9988 30.5259 25 31.9451C25 34.9812 26.0834 37.7646 27.8834 39.9313ZM27.875 30.5562C27.8102 31.0099 27.7773 31.4728 27.7764 31.9451C27.7764 33.6895 28.2347 35.3215 29.0361 36.7354L37.432 34.4395C37.894 34.3137 38.2946 34.0245 38.5593 33.6256C38.8241 33.2266 38.9351 32.7451 38.8716 32.2705C38.8081 31.796 38.5745 31.3606 38.2142 31.0452C37.8539 30.7299 37.3913 30.5561 36.9125 30.5562H27.875ZM10.5556 41.9452C10.8503 42.1662 11.0451 42.4952 11.0972 42.8599C11.1493 43.2245 11.0544 43.5949 10.8334 43.8896L6.66669 49.4452C6.44568 49.7399 6.11665 49.9348 5.752 49.9868C5.38735 50.0389 5.01693 49.944 4.72225 49.723C4.42756 49.502 4.23275 49.173 4.18065 48.8083C4.12856 48.4437 4.22346 48.0733 4.44447 47.7786L8.61114 42.223C8.83215 41.9283 9.16118 41.7334 9.52583 41.6814C9.89048 41.6293 10.2609 41.7242 10.5556 41.9452Z" fill="#B31313"/>
<path d="M1.38892 48.6119C1.38892 48.2435 1.53525 47.8903 1.79571 47.6298C2.05618 47.3693 2.40945 47.223 2.77781 47.223H9.72225C10.0906 47.223 10.4439 47.3693 10.7043 47.6298C10.9648 47.8903 11.1111 48.2435 11.1111 48.6119C11.1111 48.9803 10.9648 49.3335 10.7043 49.594C10.4439 49.8545 10.0906 50.0008 9.72225 50.0008H2.77781C2.40945 50.0008 2.05618 49.8545 1.79571 49.594C1.53525 49.3335 1.38892 48.9803 1.38892 48.6119Z" fill="#B31313"/>
<path fill-rule="evenodd" clip-rule="evenodd" d="M2.77781 47.223C2.40945 47.223 2.05618 47.3693 1.79571 47.6298C1.53525 47.8903 1.38892 48.2436 1.38892 48.6119C1.38892 48.9803 1.53525 49.3336 1.79571 49.594C2.05618 49.8545 2.40945 50.0008 2.77781 50.0008H9.72225C10.0906 50.0008 10.4439 49.8545 10.7043 49.594C10.9648 49.3336 11.1111 48.9803 11.1111 48.6119C11.1111 48.2436 10.9648 47.8903 10.7043 47.6298C10.4439 47.3693 10.0906 47.223 9.72225 47.223H2.77781ZM2.77781 36.1396C2.77781 33.9221 3.65871 31.7953 5.22672 30.2273C6.79473 28.6593 8.92141 27.7784 11.1389 27.7784H36.9167C38.0629 27.7775 39.1707 28.1912 40.0359 28.943C40.9011 29.6949 41.4652 30.7342 41.6242 31.8693C41.7833 33.0045 41.5265 34.1588 40.9013 35.1195C40.2761 36.0801 39.3246 36.7823 38.2223 37.0965L13.4348 44.1785C8.09447 45.7036 2.77781 41.6924 2.77781 36.1396ZM13.5167 37.5007C13.2109 38.0302 12.739 38.4441 12.1741 38.6781C11.6092 38.912 10.9828 38.9531 10.3922 38.7948C9.80156 38.6366 9.27966 38.2878 8.90741 37.8027C8.53517 37.3176 8.33339 36.7233 8.33336 36.1118C8.33339 35.5003 8.53517 34.906 8.90741 34.4209C9.27966 33.9358 9.80156 33.587 10.3922 33.4288C10.9828 33.2705 11.6092 33.3116 12.1741 33.5455C12.739 33.7795 13.2109 34.1934 13.5167 34.7229H18.0556C18.4239 34.7229 18.7772 34.8692 19.0377 35.1297C19.2981 35.3902 19.4445 35.7434 19.4445 36.1118C19.4445 36.4802 19.2981 36.8334 19.0377 37.0939C18.7772 37.3544 18.4239 37.5007 18.0556 37.5007H13.5167Z" fill="#B31313"/>
<path fill-rule="evenodd" clip-rule="evenodd" d="M5.55555 36.1257V36.1396C5.55555 39.8479 9.10555 42.5257 12.6722 41.5077L16.9722 40.2785H14.7847C13.9837 40.9846 12.9962 41.4449 11.9404 41.6043C10.8846 41.7636 9.80519 41.6154 8.83144 41.1772C7.8577 40.7391 7.03085 40.0296 6.44987 39.1337C5.86889 38.2378 5.55839 37.1935 5.55555 36.1257ZM11.125 30.5562H36.9167C37.3929 30.5555 37.8533 30.7271 38.2128 31.0393C38.5724 31.3516 38.8068 31.7834 38.8728 32.255C38.9388 32.7266 38.832 33.2062 38.572 33.6052C38.312 34.0042 37.9164 34.2956 37.4583 34.4257L20.9 39.1563C21.5109 38.5854 21.936 37.844 22.1199 37.0284C22.3038 36.2128 22.2381 35.3607 21.9313 34.5829C21.6245 33.8051 21.0908 33.1376 20.3996 32.6672C19.7084 32.1967 18.8917 31.9451 18.0556 31.9451H14.7847C13.7737 31.0534 12.473 30.5598 11.125 30.5562ZM13.5167 37.5007C13.2109 38.0302 12.739 38.4441 12.174 38.6781C11.6091 38.912 10.9828 38.9531 10.3922 38.7948C9.80153 38.6366 9.27962 38.2878 8.90738 37.8027C8.53514 37.3176 8.33335 36.7233 8.33333 36.1118C8.33335 35.5003 8.53514 34.906 8.90738 34.4209C9.27962 33.9358 9.80153 33.587 10.3922 33.4288C10.9828 33.2705 11.6091 33.3115 12.174 33.5455C12.739 33.7795 13.2109 34.1934 13.5167 34.7229H18.0556C18.4239 34.7229 18.7772 34.8692 19.0376 35.1297C19.2981 35.3902 19.4444 35.7434 19.4444 36.1118C19.4444 36.4802 19.2981 36.8334 19.0376 37.0939C18.7772 37.3544 18.4239 37.5007 18.0556 37.5007H13.5167ZM11.1389 27.7784C8.92138 27.7784 6.7947 28.6593 5.22668 30.2273C3.65867 31.7953 2.77777 33.922 2.77777 36.1396C2.77777 41.6938 8.09444 45.7036 13.4347 44.1785L38.2208 37.0951C39.3219 36.78 40.272 36.0778 40.8962 35.1176C41.5205 34.1575 41.7768 33.0041 41.618 31.8699C41.4593 30.7357 40.8961 29.6971 40.0322 28.9453C39.1683 28.1934 38.0619 27.779 36.9167 27.7784H11.1389Z" fill="#B31313"/>
<path fill-rule="evenodd" clip-rule="evenodd" d="M6.53061 16.731C6.88202 16.6214 7.26256 16.6558 7.58861 16.8267C7.91466 16.9975 8.15956 17.2908 8.2695 17.6421L11.7417 28.7533C11.8378 29.1007 11.7951 29.4719 11.6226 29.7884C11.4501 30.1049 11.1613 30.3419 10.8172 30.4494C10.4732 30.5569 10.1008 30.5264 9.77882 30.3643C9.45683 30.2023 9.21044 29.9215 9.09172 29.5811L5.6195 18.4699C5.50994 18.1185 5.54436 17.7379 5.7152 17.4119C5.88603 17.0858 6.17932 16.8409 6.53061 16.731ZM40.7542 0.0835975C40.9256 0.146199 41.083 0.241961 41.2174 0.365409C41.3517 0.488858 41.4605 0.637573 41.5373 0.803059C41.6142 0.968545 41.6577 1.14756 41.6654 1.32987C41.673 1.51217 41.6447 1.69421 41.582 1.86556L40.1931 5.66838C40.1257 5.8532 40.0197 6.02159 39.8823 6.16238C39.7448 6.30317 39.579 6.41316 39.3959 6.48505L34.4126 8.43646L38.8028 20.3532C38.8704 20.5253 38.903 20.7091 38.8986 20.8939C38.8943 21.0787 38.8531 21.2607 38.7775 21.4294C38.7018 21.5981 38.5933 21.7499 38.4582 21.8761C38.3231 22.0023 38.1642 22.1002 37.9908 22.1642C37.8174 22.2282 37.6329 22.2569 37.4483 22.2487C37.2636 22.2404 37.0825 22.1954 36.9154 22.1163C36.7484 22.0371 36.5988 21.9254 36.4755 21.7877C36.3522 21.65 36.2576 21.4891 36.1973 21.3144L31.3362 8.11979C31.2104 7.77881 31.2233 7.40212 31.3721 7.07053C31.5208 6.73895 31.7937 6.47889 32.132 6.34616L37.7987 4.12669L38.9737 0.912772C39.1001 0.566956 39.3587 0.2855 39.6926 0.130275C40.0265 -0.0249499 40.4083 -0.0426288 40.7542 0.0835975Z" fill="#B31313"/>
<path d="M3.42492e-07 15.4866C-0.000229778 14.9333 0.115506 14.3862 0.339744 13.8805C0.563981 13.3747 0.891739 12.9216 1.30188 12.5503C1.71201 12.1791 2.19542 11.8979 2.72091 11.7249C3.2464 11.552 3.80231 11.4911 4.35278 11.5463L10.6056 12.1713C11.5363 12.2642 12.3958 12.7114 13.0061 13.4203C13.6164 14.1292 13.9309 15.0456 13.8845 15.9799C13.8381 16.9141 13.4344 17.7948 12.7569 18.4398C12.0794 19.0848 11.1799 19.4446 10.2444 19.4449H3.95833C2.90852 19.4449 1.9017 19.0279 1.15937 18.2856C0.417038 17.5432 3.42492e-07 16.5364 3.42492e-07 15.4866Z" fill="#B31313"/>
<path fill-rule="evenodd" clip-rule="evenodd" d="M10.3299 14.9365L4.07575 14.3115C3.91681 14.2961 3.75638 14.313 3.60417 14.3613C3.45196 14.4097 3.31114 14.4884 3.19023 14.5927C3.06931 14.697 2.97082 14.8248 2.90071 14.9683C2.83061 15.1117 2.79034 15.268 2.78234 15.4275C2.77435 15.5869 2.7988 15.7464 2.85421 15.8962C2.90962 16.046 2.99484 16.1829 3.10472 16.2988C3.2146 16.4147 3.34684 16.5071 3.49346 16.5704C3.64007 16.6337 3.798 16.6666 3.9577 16.6671H10.2424C10.4633 16.6646 10.6749 16.5779 10.8341 16.4248C10.9933 16.2716 11.0882 16.0636 11.0993 15.8429C11.1105 15.6223 11.0371 15.4057 10.8942 15.2373C10.7512 15.0689 10.5494 14.9614 10.3299 14.9365ZM4.35214 11.5476C3.81855 11.4945 3.27974 11.5504 2.7684 11.7119C2.25706 11.8733 1.78386 12.137 1.37751 12.4869C0.971162 12.8368 0.640138 13.2656 0.404527 13.7473C0.168917 14.229 0.0336312 14.7535 0.00688161 15.2891C-0.019868 15.8246 0.0624756 16.3601 0.248916 16.8628C0.435355 17.3656 0.722004 17.8253 1.09147 18.2139C1.46093 18.6025 1.9055 18.912 2.39821 19.1236C2.89091 19.3353 3.42147 19.4446 3.9577 19.4449H10.2424C11.1756 19.4415 12.072 19.0804 12.7469 18.4359C13.4219 17.7914 13.824 16.9126 13.8704 15.9806C13.9169 15.0485 13.6042 14.1341 12.9967 13.4257C12.3892 12.7173 11.5332 12.2688 10.6049 12.1726L4.35214 11.5476Z" fill="#B31313"/>
</svg>
