<svg width="50" height="50" viewBox="0 0 50 50" fill="none" xmlns="http://www.w3.org/2000/svg">
<path d="M35.0833 24.2292C35.9178 24.2395 36.7459 24.0826 37.5188 23.7677C38.2917 23.4529 38.9936 22.9864 39.5833 22.3958L45.4792 16.5C45.8672 16.1097 46.085 15.5816 46.085 15.0313C46.085 14.4809 45.8672 13.9528 45.4792 13.5625C45.2855 13.3672 45.0551 13.2122 44.8012 13.1065C44.5473 13.0007 44.275 12.9463 44 12.9463C43.725 12.9463 43.4527 13.0007 43.1988 13.1065C42.9449 13.2122 42.7145 13.3672 42.5208 13.5625L36.5625 19.4375C36.3688 19.6328 36.1384 19.7878 35.8845 19.8935C35.6307 19.9993 35.3584 20.0537 35.0833 20.0537C34.8083 20.0537 34.536 19.9993 34.2821 19.8935C34.0283 19.7878 33.7978 19.6328 33.6042 19.4375L40.9792 12.0833C41.1734 11.8891 41.3275 11.6585 41.4326 11.4047C41.5378 11.1509 41.5919 10.8789 41.5919 10.6042C41.5919 10.3295 41.5378 10.0574 41.4326 9.80365C41.3275 9.54985 41.1734 9.31925 40.9792 9.125C40.7849 8.93075 40.5543 8.77667 40.3005 8.67154C40.0467 8.56642 39.7747 8.51231 39.5 8.51231C39.2253 8.51231 38.9533 8.56642 38.6995 8.67154C38.4457 8.77667 38.2151 8.93075 38.0208 9.125L30.6667 16.5C30.2786 16.1097 30.0609 15.5816 30.0609 15.0313C30.0609 14.4809 30.2786 13.9528 30.6667 13.5625L36.5625 7.66667C36.7567 7.47242 36.9108 7.24182 37.016 6.98802C37.1211 6.73422 37.1752 6.46221 37.1752 6.1875C37.1752 5.91279 37.1211 5.64078 37.016 5.38698C36.9108 5.13318 36.7567 4.90258 36.5625 4.70833C36.3683 4.51409 36.1376 4.36 35.8839 4.25488C35.6301 4.14975 35.358 4.09564 35.0833 4.09564C34.8086 4.09564 34.5366 4.14975 34.2828 4.25488C34.029 4.36 33.7984 4.51409 33.6042 4.70833L27.7083 10.6042C26.5379 11.776 25.8805 13.3646 25.8805 15.0208C25.8805 16.6771 26.5379 18.2656 27.7083 19.4375L25 22.125L7.77084 4.83333L7.5625 4.70833C7.45618 4.61518 7.33688 4.53799 7.20834 4.47917L6.83334 4.33333L6.58334 4.16667H6.02084C5.89655 4.14781 5.77013 4.14781 5.64584 4.16667C5.51972 4.21257 5.40054 4.27567 5.29167 4.35417L4.95834 4.5625H4.8125L4.6875 4.77083C4.59933 4.88083 4.52255 4.99949 4.45834 5.125C4.39646 5.25167 4.3476 5.38429 4.3125 5.52083C4.3125 5.52083 4.3125 5.66667 4.3125 5.75C3.80695 9.27377 4.12928 12.8669 5.25391 16.2444C6.37855 19.6219 8.27458 22.691 10.7917 25.2083L16.2917 30.6875L5.02084 41.9375C4.82557 42.1312 4.67058 42.3616 4.56481 42.6155C4.45905 42.8693 4.40459 43.1416 4.40459 43.4167C4.40459 43.6917 4.45905 43.964 4.56481 44.2179C4.67058 44.4717 4.82557 44.7022 5.02084 44.8958C5.2155 45.0889 5.44637 45.2417 5.7002 45.3454C5.95403 45.449 6.22582 45.5016 6.5 45.5C6.77418 45.5016 7.04598 45.449 7.29981 45.3454C7.55364 45.2417 7.7845 45.0889 7.97917 44.8958L20.625 32.4375L26.5208 26.5417L30.6875 22.375C31.85 23.55 33.4305 24.2167 35.0833 24.2292ZM19.1458 28.0208L13.6667 22.5208C10.6635 19.4765 8.78302 15.5026 8.33334 11.25L22.1042 25L19.1458 28.0208ZM32.1458 29.2083C31.7535 28.8133 31.2204 28.5902 30.6636 28.5883C30.1069 28.5863 29.5721 28.8056 29.1771 29.1979C28.782 29.5902 28.559 30.1234 28.557 30.6801C28.5551 31.2369 28.7744 31.7716 29.1667 32.1667L42.2917 45.2917C42.6896 45.6538 43.2122 45.8479 43.75 45.8333C44.0242 45.8349 44.296 45.7824 44.5498 45.6787C44.8036 45.575 45.0345 45.4223 45.2292 45.2292C45.4244 45.0355 45.5794 44.8051 45.6852 44.5512C45.791 44.2973 45.8454 44.025 45.8454 43.75C45.8454 43.475 45.791 43.2027 45.6852 42.9488C45.5794 42.6949 45.4244 42.4645 45.2292 42.2708L32.1458 29.2083Z" fill="#B31313"/>
</svg>
