<svg width="52" height="51" viewBox="0 0 52 51" fill="none" xmlns="http://www.w3.org/2000/svg">
<path opacity="0.5" d="M45.126 3.84727L49.1527 7.87404L49.4984 8.21966C51.1661 9.89291 52 10.7981 52 11.9036C52 13.0831 51.0509 14.0322 49.1527 15.9303L48.1351 16.9453L36.0657 4.85396L37.0697 3.84727C38.9678 1.94909 39.9169 1 41.0964 1C42.276 1 43.2278 1.94909 45.126 3.84727ZM8.87678 48.1527L4.84727 44.1232C2.94909 42.225 2 41.276 2 40.0964C2 38.9169 2.94909 37.9678 4.84727 36.0697L5.85396 35.063L17.937 47.146L16.9303 48.1527C15.0322 50.0509 14.0831 51 12.9036 51C11.7241 51 10.775 50.0509 8.87678 48.1527ZM38.0736 27.0067L28.0067 37.0736L15.9236 24.9933L25.9906 14.9236L38.0736 27.0067Z" fill="#B31313"/>
<path fill-rule="evenodd" clip-rule="evenodd" d="M5.72904 33.2604L16.7396 44.2735L17.6571 45.191L19.4947 47.0261C21.2098 48.7412 22.0674 49.5987 23.0749 49.8687C23.7349 50.0438 24.43 50.0438 25.09 49.8687C26.0976 49.5987 26.9551 48.7412 28.6702 47.0261C30.3853 45.311 31.2453 44.451 31.5128 43.4434C31.6905 42.7835 31.6905 42.0883 31.5128 41.4283C31.2453 40.4208 30.3878 39.5632 28.6702 37.8481L25.92 35.0955L14.9045 24.0825L12.1519 21.3298C10.4368 19.6147 9.57673 18.7547 8.57168 18.4872C7.91157 18.3107 7.21668 18.3107 6.55658 18.4872C5.54653 18.7547 4.68898 19.6122 2.9739 21.3298C1.25881 23.0449 0.40127 23.9024 0.131257 24.91C-0.0437522 25.57 -0.0437522 26.2651 0.131257 26.9251C0.40127 27.9326 1.25881 28.7902 2.9739 30.5053L5.72904 33.2604ZM35.0955 25.9175L24.0825 14.9045L21.3298 12.1519C19.6147 10.4368 18.7547 9.57673 18.4872 8.57168C18.3107 7.91157 18.3107 7.21668 18.4872 6.55658C18.7547 5.54653 19.6122 4.68898 21.3298 2.9739C23.0449 1.25881 23.9024 0.40127 24.91 0.131257C25.57 -0.0437522 26.2651 -0.0437522 26.9251 0.131257C27.9326 0.40127 28.7902 1.25881 30.5053 2.9739L33.2604 5.72904L44.261 16.7496L45.191 17.6571L47.0261 19.4947C48.7412 21.2098 49.5987 22.0674 49.8687 23.0749C50.0438 23.7349 50.0438 24.43 49.8687 25.09C49.5987 26.0976 48.7412 26.9551 47.0261 28.6702C45.311 30.3853 44.451 31.2453 43.4434 31.5128C42.7835 31.6905 42.0883 31.6905 41.4283 31.5128C40.4208 31.2453 39.5632 30.3878 37.8481 28.6702L35.0955 25.9175Z" fill="#B31313"/>
</svg>
