<svg width="29" height="29" viewBox="0 0 29 29" fill="none" xmlns="http://www.w3.org/2000/svg">
<path d="M20.7978 16.059L17.2498 14.2851C17.1102 14.2155 16.9546 14.1839 16.7989 14.1937C16.6431 14.2034 16.4927 14.2541 16.3628 14.3405L14.7341 15.4271C13.9864 15.016 13.3711 14.4008 12.9601 13.6531L14.0467 12.0243C14.1331 11.8944 14.1838 11.744 14.1935 11.5883C14.2032 11.4325 14.1717 11.277 14.1021 11.1373L12.3281 7.58937C12.2546 7.44088 12.1409 7.31595 12 7.22874C11.8591 7.14154 11.6966 7.09555 11.5309 7.09598C10.3547 7.09598 9.22665 7.56323 8.39493 8.39495C7.56322 9.22667 7.09596 10.3547 7.09596 11.5309C7.0989 14.1177 8.1278 16.5978 9.95694 18.4269C11.7861 20.256 14.2661 21.2849 16.8529 21.2879C17.4353 21.2879 18.012 21.1732 18.5501 20.9503C19.0882 20.7274 19.5771 20.4007 19.9889 19.9889C20.4007 19.5771 20.7274 19.0882 20.9503 18.5501C21.1731 18.012 21.2879 17.4353 21.2879 16.8529C21.288 16.6881 21.2422 16.5266 21.1556 16.3863C21.0691 16.2461 20.9452 16.1328 20.7978 16.059ZM16.8529 19.5139C14.7364 19.5115 12.7073 18.6697 11.2107 17.1731C9.71411 15.6766 8.8723 13.6474 8.86995 11.5309C8.86978 10.9157 9.08279 10.3195 9.47273 9.8436C9.86267 9.36774 10.4055 9.0417 11.0087 8.92097L12.2815 11.4711L11.1983 13.0832C11.1174 13.2046 11.0676 13.3441 11.0535 13.4894C11.0394 13.6346 11.0613 13.7811 11.1174 13.9158C11.752 15.4242 12.9519 16.6241 14.4602 17.2587C14.5954 17.3172 14.743 17.3412 14.8897 17.3284C15.0364 17.3157 15.1777 17.2665 15.3007 17.1855L16.9205 16.1056L19.4706 17.3785C19.349 17.9824 19.0215 18.5254 18.5441 18.9149C18.0667 19.3043 17.469 19.516 16.8529 19.5139ZM14.1919 2.66101C12.2011 2.66058 10.2441 3.17556 8.51144 4.15585C6.77874 5.13613 5.32935 6.54832 4.30434 8.25495C3.27934 9.96158 2.71364 11.9045 2.66231 13.8946C2.61098 15.8847 3.07577 17.8543 4.01144 19.6115L2.75302 23.3867C2.64878 23.6993 2.63365 24.0347 2.70933 24.3554C2.78501 24.6761 2.94851 24.9694 3.1815 25.2023C3.41448 25.4353 3.70775 25.5988 4.02844 25.6745C4.34912 25.7502 4.68454 25.7351 4.99711 25.6308L8.77238 24.3724C10.3188 25.1949 12.0323 25.6543 13.7828 25.7157C15.5333 25.7772 17.2748 25.439 18.8751 24.7269C20.4754 24.0148 21.8924 22.9475 23.0186 21.606C24.1448 20.2644 24.9506 18.684 25.3748 16.9845C25.799 15.2851 25.8305 13.5114 25.4669 11.798C25.1032 10.0846 24.354 8.47651 23.2761 7.09589C22.1982 5.71526 20.8199 4.59834 19.2459 3.82991C17.6719 3.06148 15.9435 2.66173 14.1919 2.66101ZM14.1919 23.9489C12.4767 23.95 10.7915 23.4983 9.30679 22.6394C9.19809 22.5764 9.07723 22.5372 8.95222 22.5244C8.82721 22.5116 8.70091 22.5255 8.58168 22.5651L4.43498 23.9489L5.81758 19.8022C5.85744 19.683 5.87152 19.5567 5.85891 19.4317C5.84629 19.3067 5.80726 19.1858 5.74441 19.077C4.66889 17.2176 4.23708 15.0552 4.51595 12.9253C4.79482 10.7953 5.76879 8.81699 7.28676 7.2971C8.80474 5.7772 10.7819 4.80074 12.9114 4.51918C15.041 4.23762 17.2039 4.6667 19.0648 5.73986C20.9256 6.81302 22.3802 8.47027 23.2031 10.4545C24.0259 12.4388 24.1709 14.6391 23.6156 16.7142C23.0603 18.7893 21.8357 20.6231 20.1318 21.9312C18.4279 23.2393 16.34 23.9485 14.1919 23.9489Z" fill="#808080"/>
</svg>
